<?xml version="1.0" encoding="UTF-8"?>
<svg xmlns="http://www.w3.org/2000/svg" xmlns:xlink="http://www.w3.org/1999/xlink" width="375pt" height="374.999991pt" viewBox="0 0 375 374.999991" version="1.2">
<defs>
<clipPath id="clip1">
  <path d="M 209 92 L 355.738281 92 L 355.738281 375 L 209 375 Z M 209 92 "/>
</clipPath>
<clipPath id="clip2">
  <path d="M 16.789062 0 L 52 0 L 52 69 L 16.789062 69 Z M 16.789062 0 "/>
</clipPath>
<clipPath id="clip3">
  <path d="M 16.789062 39 L 51 39 L 51 69 L 16.789062 69 Z M 16.789062 39 "/>
</clipPath>
<clipPath id="clip4">
  <path d="M 32.015625 123 L 169 123 L 169 375 L 32.015625 375 Z M 32.015625 123 "/>
</clipPath>
<clipPath id="clip5">
  <path d="M 164 134 L 332.832031 134 L 332.832031 375 L 164 375 Z M 164 134 "/>
</clipPath>
</defs>
<g id="surface1">
<g clip-path="url(#clip1)" clip-rule="nonzero">
<path style=" stroke:none;fill-rule:nonzero;fill:rgb(8.239746%,42.349243%,86.669922%);fill-opacity:1;" d="M 209.859375 92.652344 L 327.9375 92.652344 C 328.847656 92.644531 329.753906 92.683594 330.65625 92.765625 C 331.5625 92.847656 332.457031 92.976562 333.351562 93.144531 C 334.242188 93.316406 335.125 93.53125 335.992188 93.789062 C 336.863281 94.046875 337.71875 94.347656 338.5625 94.691406 C 339.402344 95.035156 340.222656 95.417969 341.027344 95.839844 C 341.828125 96.265625 342.609375 96.726562 343.367188 97.226562 C 344.125 97.726562 344.855469 98.265625 345.558594 98.839844 C 346.265625 99.410156 346.9375 100.015625 347.582031 100.65625 C 348.226562 101.296875 348.839844 101.964844 349.417969 102.667969 C 349.996094 103.367188 350.539062 104.09375 351.046875 104.847656 C 351.550781 105.601562 352.019531 106.375 352.449219 107.175781 C 352.882812 107.976562 353.269531 108.796875 353.621094 109.632812 C 353.96875 110.472656 354.277344 111.324219 354.539062 112.195312 C 354.804688 113.0625 355.027344 113.941406 355.203125 114.832031 C 355.382812 115.722656 355.515625 116.621094 355.605469 117.523438 C 355.695312 118.425781 355.738281 119.332031 355.738281 120.242188 L 355.738281 358.867188 C 355.738281 359.765625 355.695312 360.660156 355.609375 361.554688 C 355.519531 362.453125 355.390625 363.339844 355.214844 364.222656 C 355.039062 365.105469 354.824219 365.976562 354.5625 366.835938 C 354.304688 367.695312 354.003906 368.542969 353.660156 369.375 C 353.320312 370.203125 352.9375 371.015625 352.515625 371.8125 C 352.09375 372.605469 351.632812 373.375 351.136719 374.125 C 350.636719 374.875 350.105469 375.597656 349.539062 376.292969 C 348.96875 376.992188 348.371094 377.660156 347.734375 378.296875 C 347.101562 378.9375 346.441406 379.542969 345.746094 380.113281 C 345.054688 380.6875 344.335938 381.226562 343.589844 381.730469 C 342.847656 382.234375 342.078125 382.699219 341.289062 383.125 C 340.496094 383.554688 339.6875 383.941406 338.859375 384.292969 C 338.03125 384.640625 337.1875 384.949219 336.328125 385.214844 C 335.46875 385.480469 334.597656 385.707031 333.71875 385.886719 C 332.839844 386.066406 331.949219 386.207031 331.058594 386.300781 C 330.164062 386.394531 329.265625 386.445312 328.367188 386.453125 L 210.289062 386.453125 L 210.289062 92.652344 Z M 209.859375 92.652344 "/>
</g>
<path style=" stroke:none;fill-rule:nonzero;fill:rgb(2.749634%,58.428955%,100%);fill-opacity:1;" d="M 50.5625 92.652344 L 245.175781 92.652344 C 245.878906 92.652344 246.582031 92.6875 247.28125 92.757812 C 247.980469 92.824219 248.675781 92.929688 249.363281 93.066406 C 250.054688 93.203125 250.734375 93.375 251.40625 93.578125 C 252.082031 93.78125 252.742188 94.019531 253.390625 94.289062 C 254.042969 94.554688 254.675781 94.855469 255.296875 95.1875 C 255.917969 95.519531 256.519531 95.878906 257.101562 96.269531 C 257.6875 96.660156 258.253906 97.082031 258.796875 97.527344 C 259.339844 97.972656 259.859375 98.445312 260.355469 98.941406 C 260.855469 99.4375 261.324219 99.957031 261.773438 100.503906 C 262.21875 101.046875 262.636719 101.609375 263.027344 102.195312 C 263.417969 102.777344 263.777344 103.382812 264.109375 104 C 264.441406 104.621094 264.742188 105.257812 265.011719 105.90625 C 265.28125 106.554688 265.515625 107.21875 265.71875 107.890625 C 265.925781 108.5625 266.09375 109.242188 266.230469 109.933594 C 266.371094 110.625 266.472656 111.316406 266.542969 112.019531 C 266.609375 112.71875 266.644531 113.417969 266.644531 114.121094 L 266.644531 348.132812 C 266.644531 349.394531 266.582031 350.652344 266.457031 351.90625 C 266.335938 353.164062 266.148438 354.410156 265.902344 355.648438 C 265.652344 356.882812 265.34375 358.105469 264.976562 359.3125 C 264.609375 360.519531 264.183594 361.707031 263.695312 362.871094 C 263.210938 364.035156 262.671875 365.175781 262.074219 366.285156 C 261.476562 367.398438 260.824219 368.476562 260.121094 369.523438 C 259.414062 370.570312 258.660156 371.578125 257.855469 372.550781 C 257.054688 373.523438 256.203125 374.453125 255.308594 375.34375 C 254.410156 376.230469 253.472656 377.074219 252.496094 377.871094 C 251.515625 378.664062 250.5 379.410156 249.445312 380.105469 C 248.394531 380.800781 247.308594 381.445312 246.191406 382.03125 C 245.078125 382.621094 243.933594 383.152344 242.765625 383.628906 C 241.597656 384.105469 240.40625 384.519531 239.195312 384.878906 C 237.988281 385.238281 236.761719 385.535156 235.523438 385.773438 C 234.285156 386.007812 233.035156 386.183594 231.777344 386.296875 C 230.523438 386.410156 229.261719 386.464844 228 386.453125 L 50.5625 386.453125 C 49.660156 386.453125 48.757812 386.410156 47.859375 386.320312 C 46.957031 386.230469 46.066406 386.097656 45.179688 385.921875 C 44.292969 385.746094 43.417969 385.527344 42.554688 385.265625 C 41.6875 385.003906 40.839844 384.699219 40.003906 384.351562 C 39.167969 384.007812 38.355469 383.621094 37.558594 383.195312 C 36.761719 382.769531 35.988281 382.304688 35.234375 381.804688 C 34.484375 381.300781 33.757812 380.765625 33.0625 380.191406 C 32.363281 379.617188 31.695312 379.011719 31.054688 378.371094 C 30.414062 377.734375 29.808594 377.066406 29.238281 376.367188 C 28.664062 375.667969 28.125 374.945312 27.625 374.191406 C 27.121094 373.441406 26.65625 372.667969 26.230469 371.871094 C 25.804688 371.074219 25.421875 370.257812 25.074219 369.421875 C 24.730469 368.589844 24.425781 367.738281 24.164062 366.875 C 23.898438 366.007812 23.679688 365.132812 23.503906 364.246094 C 23.328125 363.363281 23.195312 362.46875 23.105469 361.570312 C 23.019531 360.671875 22.972656 359.769531 22.972656 358.867188 L 22.972656 120.242188 C 22.972656 119.335938 23.019531 118.4375 23.105469 117.535156 C 23.195312 116.636719 23.328125 115.746094 23.503906 114.859375 C 23.679688 113.972656 23.898438 113.097656 24.164062 112.234375 C 24.425781 111.367188 24.730469 110.519531 25.074219 109.683594 C 25.421875 108.847656 25.804688 108.03125 26.230469 107.234375 C 26.65625 106.4375 27.121094 105.664062 27.625 104.914062 C 28.125 104.164062 28.664062 103.4375 29.238281 102.738281 C 29.808594 102.039062 30.414062 101.371094 31.054688 100.734375 C 31.695312 100.09375 32.363281 99.488281 33.0625 98.914062 C 33.757812 98.34375 34.484375 97.804688 35.234375 97.300781 C 35.988281 96.800781 36.761719 96.335938 37.558594 95.910156 C 38.355469 95.484375 39.167969 95.097656 40.003906 94.753906 C 40.839844 94.40625 41.6875 94.101562 42.554688 93.839844 C 43.417969 93.578125 44.292969 93.359375 45.179688 93.183594 C 46.066406 93.007812 46.957031 92.875 47.859375 92.785156 C 48.757812 92.699219 49.660156 92.652344 50.5625 92.652344 Z M 50.5625 92.652344 "/>
<path style=" stroke:none;fill-rule:nonzero;fill:rgb(2.749634%,58.428955%,100%);fill-opacity:1;" d="M 144.59375 209.335938 C 143.519531 209.335938 142.445312 209.304688 141.375 209.25 C 140.300781 209.199219 139.226562 209.117188 138.160156 209.011719 C 137.089844 208.902344 136.023438 208.769531 134.960938 208.609375 C 133.898438 208.453125 132.839844 208.265625 131.785156 208.054688 C 130.730469 207.84375 129.683594 207.609375 128.640625 207.347656 C 127.601562 207.082031 126.566406 206.796875 125.535156 206.484375 C 124.507812 206.171875 123.488281 205.832031 122.476562 205.46875 C 121.464844 205.105469 120.464844 204.71875 119.472656 204.304688 C 118.480469 203.894531 117.496094 203.457031 116.527344 203 C 115.554688 202.539062 114.59375 202.054688 113.648438 201.546875 C 112.699219 201.039062 111.765625 200.511719 110.84375 199.957031 C 109.921875 199.402344 109.015625 198.828125 108.121094 198.230469 C 107.230469 197.632812 106.351562 197.015625 105.488281 196.375 C 104.625 195.734375 103.777344 195.074219 102.949219 194.390625 C 102.117188 193.710938 101.304688 193.007812 100.507812 192.285156 C 99.710938 191.5625 98.933594 190.824219 98.171875 190.0625 C 97.414062 189.304688 96.671875 188.523438 95.949219 187.730469 C 95.230469 186.933594 94.527344 186.121094 93.84375 185.289062 C 93.164062 184.457031 92.503906 183.613281 91.863281 182.75 C 91.222656 181.886719 90.601562 181.007812 90.003906 180.113281 C 89.40625 179.222656 88.832031 178.3125 88.28125 177.390625 C 87.726562 176.46875 87.195312 175.535156 86.6875 174.589844 C 86.183594 173.640625 85.699219 172.683594 85.238281 171.710938 C 84.777344 170.738281 84.34375 169.757812 83.929688 168.765625 C 83.519531 167.773438 83.128906 166.769531 82.765625 165.757812 C 82.40625 164.746094 82.066406 163.726562 81.753906 162.699219 C 81.441406 161.671875 81.152344 160.636719 80.890625 159.59375 C 80.628906 158.550781 80.390625 157.503906 80.179688 156.449219 C 79.96875 155.398438 79.785156 154.339844 79.625 153.277344 C 79.464844 152.210938 79.332031 151.148438 79.226562 150.078125 C 79.121094 149.007812 79.039062 147.9375 78.984375 146.863281 C 78.929688 145.789062 78.902344 144.714844 78.902344 143.640625 L 78.902344 128.828125 L 100.371094 128.828125 L 100.371094 143.640625 C 100.4375 145.046875 100.574219 146.445312 100.777344 147.835938 C 100.980469 149.226562 101.246094 150.605469 101.582031 151.972656 C 101.914062 153.339844 102.3125 154.6875 102.773438 156.015625 C 103.234375 157.34375 103.757812 158.648438 104.34375 159.925781 C 104.929688 161.203125 105.574219 162.453125 106.28125 163.667969 C 106.984375 164.886719 107.746094 166.066406 108.5625 167.210938 C 109.378906 168.359375 110.25 169.460938 111.171875 170.523438 C 112.09375 171.585938 113.0625 172.601562 114.082031 173.570312 C 115.101562 174.539062 116.164062 175.460938 117.269531 176.328125 C 118.375 177.195312 119.519531 178.011719 120.703125 178.769531 C 121.886719 179.53125 123.105469 180.230469 124.355469 180.875 C 125.605469 181.519531 126.882812 182.101562 128.1875 182.625 C 129.496094 183.148438 130.820312 183.605469 132.171875 184 C 133.519531 184.398438 134.886719 184.726562 136.265625 184.996094 C 137.648438 185.261719 139.039062 185.460938 140.4375 185.59375 C 141.839844 185.726562 143.242188 185.792969 144.648438 185.792969 C 146.054688 185.792969 147.457031 185.726562 148.859375 185.59375 C 150.257812 185.460938 151.648438 185.261719 153.03125 184.996094 C 154.410156 184.726562 155.777344 184.398438 157.125 184 C 158.476562 183.605469 159.804688 183.148438 161.109375 182.625 C 162.414062 182.101562 163.691406 181.519531 164.945312 180.875 C 166.195312 180.230469 167.410156 179.53125 168.59375 178.769531 C 169.777344 178.011719 170.921875 177.195312 172.027344 176.328125 C 173.136719 175.460938 174.199219 174.539062 175.214844 173.570312 C 176.234375 172.601562 177.207031 171.585938 178.128906 170.523438 C 179.050781 169.460938 179.917969 168.359375 180.734375 167.210938 C 181.550781 166.066406 182.3125 164.886719 183.019531 163.667969 C 183.722656 162.453125 184.367188 161.203125 184.953125 159.925781 C 185.539062 158.648438 186.0625 157.34375 186.523438 156.015625 C 186.984375 154.6875 187.382812 153.339844 187.71875 151.972656 C 188.050781 150.605469 188.320312 149.226562 188.519531 147.835938 C 188.722656 146.445312 188.859375 145.046875 188.929688 143.640625 L 188.929688 128.828125 L 210.398438 128.828125 L 210.398438 143.640625 C 210.394531 144.71875 210.367188 145.792969 210.3125 146.867188 C 210.257812 147.941406 210.175781 149.015625 210.070312 150.085938 C 209.964844 151.15625 209.828125 152.222656 209.671875 153.285156 C 209.511719 154.347656 209.324219 155.410156 209.113281 156.464844 C 208.902344 157.519531 208.664062 158.566406 208.402344 159.609375 C 208.140625 160.652344 207.851562 161.691406 207.539062 162.71875 C 207.222656 163.746094 206.886719 164.769531 206.523438 165.78125 C 206.160156 166.792969 205.769531 167.796875 205.355469 168.789062 C 204.945312 169.78125 204.507812 170.765625 204.046875 171.738281 C 203.585938 172.710938 203.101562 173.667969 202.59375 174.617188 C 202.085938 175.566406 201.554688 176.5 201 177.421875 C 200.445312 178.34375 199.867188 179.253906 199.269531 180.148438 C 198.671875 181.042969 198.050781 181.921875 197.410156 182.785156 C 196.769531 183.648438 196.105469 184.492188 195.421875 185.324219 C 194.738281 186.15625 194.035156 186.96875 193.3125 187.765625 C 192.589844 188.5625 191.847656 189.339844 191.085938 190.101562 C 190.324219 190.859375 189.546875 191.601562 188.746094 192.324219 C 187.949219 193.046875 187.136719 193.746094 186.304688 194.429688 C 185.472656 195.113281 184.621094 195.773438 183.757812 196.414062 C 182.894531 197.054688 182.015625 197.671875 181.121094 198.269531 C 180.222656 198.867188 179.316406 199.441406 178.390625 199.992188 C 177.46875 200.546875 176.535156 201.074219 175.585938 201.582031 C 174.636719 202.089844 173.675781 202.570312 172.703125 203.03125 C 171.730469 203.492188 170.746094 203.925781 169.75 204.335938 C 168.757812 204.75 167.753906 205.136719 166.742188 205.496094 C 165.726562 205.859375 164.707031 206.195312 163.675781 206.507812 C 162.648438 206.820312 161.609375 207.105469 160.566406 207.367188 C 159.523438 207.628906 158.472656 207.863281 157.417969 208.074219 C 156.363281 208.285156 155.304688 208.46875 154.242188 208.625 C 153.175781 208.78125 152.109375 208.914062 151.039062 209.019531 C 149.96875 209.125 148.894531 209.203125 147.820312 209.257812 C 146.746094 209.308594 145.671875 209.335938 144.59375 209.335938 Z M 144.59375 209.335938 "/>
<path style=" stroke:none;fill-rule:nonzero;fill:rgb(8.239746%,42.349243%,86.669922%);fill-opacity:1;" d="M 200.519531 12.144531 C 201.597656 12.148438 202.667969 12.175781 203.742188 12.230469 C 204.816406 12.285156 205.886719 12.363281 206.957031 12.472656 C 208.027344 12.578125 209.09375 12.710938 210.15625 12.871094 C 211.21875 13.03125 212.277344 13.214844 213.328125 13.425781 C 214.382812 13.636719 215.433594 13.871094 216.472656 14.136719 C 217.515625 14.398438 218.550781 14.683594 219.578125 15 C 220.605469 15.3125 221.628906 15.648438 222.636719 16.011719 C 223.648438 16.375 224.652344 16.761719 225.644531 17.175781 C 226.636719 17.585938 227.617188 18.023438 228.589844 18.484375 C 229.5625 18.941406 230.519531 19.425781 231.46875 19.933594 C 232.414062 20.441406 233.351562 20.972656 234.269531 21.523438 C 235.191406 22.078125 236.101562 22.652344 236.992188 23.25 C 237.886719 23.847656 238.765625 24.464844 239.628906 25.105469 C 240.492188 25.746094 241.335938 26.410156 242.167969 27.089844 C 243 27.773438 243.8125 28.472656 244.609375 29.195312 C 245.40625 29.917969 246.183594 30.660156 246.941406 31.417969 C 247.703125 32.179688 248.441406 32.957031 249.164062 33.753906 C 249.886719 34.546875 250.589844 35.363281 251.269531 36.191406 C 251.953125 37.023438 252.613281 37.871094 253.253906 38.734375 C 253.894531 39.597656 254.511719 40.472656 255.109375 41.367188 C 255.707031 42.261719 256.285156 43.167969 256.835938 44.089844 C 257.390625 45.011719 257.917969 45.945312 258.425781 46.894531 C 258.933594 47.839844 259.417969 48.800781 259.878906 49.769531 C 260.339844 50.742188 260.773438 51.722656 261.1875 52.714844 C 261.597656 53.707031 261.984375 54.710938 262.347656 55.722656 C 262.710938 56.734375 263.050781 57.753906 263.363281 58.78125 C 263.675781 59.808594 263.964844 60.84375 264.226562 61.886719 C 264.488281 62.929688 264.722656 63.976562 264.933594 65.03125 C 265.144531 66.085938 265.332031 67.144531 265.492188 68.207031 C 265.648438 69.269531 265.78125 70.335938 265.890625 71.402344 C 265.996094 72.472656 266.078125 73.542969 266.132812 74.617188 C 266.1875 75.691406 266.214844 76.765625 266.214844 77.839844 L 266.214844 92.652344 L 244.746094 92.652344 L 244.746094 77.839844 C 244.675781 76.433594 244.542969 75.035156 244.339844 73.644531 C 244.136719 72.253906 243.871094 70.875 243.535156 69.507812 C 243.203125 68.140625 242.804688 66.792969 242.34375 65.464844 C 241.882812 64.136719 241.359375 62.832031 240.773438 61.554688 C 240.1875 60.277344 239.539062 59.027344 238.835938 57.8125 C 238.132812 56.59375 237.371094 55.414062 236.554688 54.269531 C 235.738281 53.125 234.867188 52.019531 233.945312 50.957031 C 233.023438 49.894531 232.054688 48.878906 231.035156 47.910156 C 230.015625 46.941406 228.953125 46.023438 227.847656 45.152344 C 226.742188 44.285156 225.597656 43.46875 224.414062 42.710938 C 223.230469 41.953125 222.011719 41.25 220.761719 40.605469 C 219.511719 39.960938 218.234375 39.378906 216.925781 38.855469 C 215.621094 38.335938 214.292969 37.875 212.945312 37.480469 C 211.59375 37.082031 210.230469 36.753906 208.847656 36.488281 C 207.46875 36.222656 206.078125 36.023438 204.675781 35.886719 C 203.277344 35.753906 201.875 35.6875 200.46875 35.6875 C 199.0625 35.6875 197.65625 35.753906 196.257812 35.886719 C 194.859375 36.023438 193.46875 36.222656 192.085938 36.488281 C 190.703125 36.753906 189.339844 37.082031 187.988281 37.480469 C 186.640625 37.875 185.3125 38.335938 184.007812 38.855469 C 182.699219 39.378906 181.421875 39.960938 180.171875 40.605469 C 178.921875 41.25 177.707031 41.953125 176.523438 42.710938 C 175.339844 43.46875 174.191406 44.285156 173.085938 45.152344 C 171.980469 46.023438 170.917969 46.941406 169.898438 47.910156 C 168.882812 48.878906 167.910156 49.894531 166.988281 50.957031 C 166.066406 52.019531 165.199219 53.125 164.378906 54.269531 C 163.5625 55.414062 162.804688 56.59375 162.097656 57.8125 C 161.394531 59.027344 160.75 60.277344 160.164062 61.554688 C 159.578125 62.832031 159.054688 64.136719 158.589844 65.464844 C 158.128906 66.792969 157.730469 68.140625 157.398438 69.507812 C 157.066406 70.875 156.796875 72.253906 156.59375 73.644531 C 156.394531 75.035156 156.257812 76.433594 156.1875 77.839844 L 156.1875 92.652344 L 134.71875 92.652344 L 134.71875 77.839844 C 134.722656 76.765625 134.75 75.6875 134.804688 74.613281 C 134.859375 73.539062 134.9375 72.46875 135.046875 71.398438 C 135.152344 70.328125 135.285156 69.261719 135.445312 68.195312 C 135.605469 67.132812 135.789062 66.074219 136.003906 65.019531 C 136.214844 63.964844 136.449219 62.914062 136.714844 61.871094 C 136.976562 60.828125 137.265625 59.792969 137.578125 58.761719 C 137.890625 57.734375 138.230469 56.710938 138.59375 55.699219 C 138.957031 54.6875 139.347656 53.683594 139.757812 52.691406 C 140.171875 51.699219 140.609375 50.714844 141.070312 49.742188 C 141.53125 48.773438 142.015625 47.8125 142.523438 46.863281 C 143.03125 45.914062 143.5625 44.980469 144.117188 44.058594 C 144.671875 43.136719 145.246094 42.226562 145.847656 41.332031 C 146.445312 40.441406 147.066406 39.5625 147.707031 38.699219 C 148.347656 37.835938 149.011719 36.988281 149.695312 36.15625 C 150.378906 35.324219 151.082031 34.511719 151.804688 33.714844 C 152.527344 32.917969 153.269531 32.140625 154.03125 31.378906 C 154.792969 30.621094 155.570312 29.878906 156.367188 29.15625 C 157.167969 28.4375 157.980469 27.734375 158.8125 27.050781 C 159.644531 26.371094 160.492188 25.710938 161.359375 25.070312 C 162.222656 24.429688 163.101562 23.808594 163.996094 23.210938 C 164.890625 22.617188 165.800781 22.039062 166.722656 21.488281 C 167.648438 20.9375 168.582031 20.40625 169.53125 19.898438 C 170.480469 19.394531 171.441406 18.910156 172.414062 18.449219 C 173.386719 17.992188 174.371094 17.554688 175.363281 17.144531 C 176.359375 16.734375 177.363281 16.347656 178.375 15.984375 C 179.386719 15.621094 180.410156 15.285156 181.4375 14.972656 C 182.46875 14.660156 183.503906 14.375 184.550781 14.113281 C 185.59375 13.851562 186.640625 13.617188 187.695312 13.40625 C 188.753906 13.199219 189.8125 13.015625 190.875 12.855469 C 191.941406 12.699219 193.007812 12.566406 194.078125 12.460938 C 195.148438 12.355469 196.222656 12.277344 197.296875 12.222656 C 198.371094 12.171875 199.445312 12.144531 200.519531 12.144531 Z M 200.519531 12.144531 "/>
<g clip-path="url(#clip2)" clip-rule="nonzero">
<path style=" stroke:none;fill-rule:nonzero;fill:rgb(87.449646%,90.979004%,95.689392%);fill-opacity:1;" d="M -130.742188 -128.796875 L 22.972656 -128.796875 C 23.910156 -128.796875 24.84375 -128.75 25.773438 -128.660156 C 26.703125 -128.566406 27.628906 -128.429688 28.546875 -128.25 C 29.460938 -128.066406 30.367188 -127.839844 31.261719 -127.566406 C 32.15625 -127.296875 33.039062 -126.980469 33.902344 -126.625 C 34.765625 -126.265625 35.609375 -125.867188 36.433594 -125.425781 C 37.257812 -124.984375 38.058594 -124.503906 38.839844 -123.984375 C 39.617188 -123.464844 40.367188 -122.910156 41.089844 -122.316406 C 41.8125 -121.722656 42.503906 -121.09375 43.164062 -120.433594 C 43.824219 -119.773438 44.453125 -119.082031 45.046875 -118.359375 C 45.640625 -117.632812 46.195312 -116.882812 46.714844 -116.105469 C 47.234375 -115.328125 47.714844 -114.527344 48.15625 -113.703125 C 48.597656 -112.878906 48.996094 -112.035156 49.355469 -111.171875 C 49.710938 -110.304688 50.027344 -109.425781 50.296875 -108.53125 C 50.570312 -107.636719 50.796875 -106.730469 50.980469 -105.8125 C 51.160156 -104.898438 51.296875 -103.972656 51.390625 -103.042969 C 51.480469 -102.113281 51.527344 -101.179688 51.527344 -100.242188 L 51.527344 59.589844 C 51.527344 60.460938 51.402344 61.3125 51.148438 62.148438 C 50.898438 62.980469 50.53125 63.757812 50.046875 64.484375 C 49.5625 65.207031 48.984375 65.847656 48.3125 66.398438 C 47.636719 66.949219 46.898438 67.394531 46.09375 67.726562 C 45.289062 68.058594 44.453125 68.269531 43.589844 68.355469 C 42.722656 68.441406 41.863281 68.398438 41.007812 68.226562 C 40.152344 68.058594 39.34375 67.769531 38.574219 67.355469 C 37.808594 66.945312 37.117188 66.433594 36.5 65.816406 L 16.855469 46.28125 C 15.773438 45.191406 14.59375 44.21875 13.316406 43.363281 C 12.042969 42.507812 10.695312 41.785156 9.277344 41.195312 C 7.859375 40.605469 6.394531 40.160156 4.890625 39.859375 C 3.382812 39.558594 1.859375 39.410156 0.324219 39.410156 L -130.742188 39.410156 C -131.683594 39.417969 -132.625 39.378906 -133.5625 39.292969 C -134.5 39.207031 -135.429688 39.074219 -136.355469 38.894531 C -137.28125 38.71875 -138.195312 38.496094 -139.097656 38.226562 C -140 37.957031 -140.886719 37.644531 -141.757812 37.289062 C -142.632812 36.933594 -143.484375 36.535156 -144.316406 36.09375 C -145.148438 35.652344 -145.957031 35.171875 -146.742188 34.652344 C -147.527344 34.128906 -148.285156 33.574219 -149.015625 32.976562 C -149.742188 32.382812 -150.441406 31.75 -151.109375 31.085938 C -151.777344 30.421875 -152.410156 29.726562 -153.007812 28.996094 C -153.605469 28.269531 -154.167969 27.515625 -154.691406 26.730469 C -155.214844 25.949219 -155.699219 25.144531 -156.140625 24.3125 C -156.585938 23.480469 -156.988281 22.628906 -157.347656 21.757812 C -157.707031 20.890625 -158.023438 20.003906 -158.292969 19.101562 C -158.566406 18.199219 -158.792969 17.285156 -158.972656 16.363281 C -159.15625 15.4375 -159.292969 14.507812 -159.382812 13.570312 C -159.46875 12.632812 -159.511719 11.691406 -159.511719 10.75 L -159.511719 -100.242188 C -159.511719 -101.183594 -159.464844 -102.121094 -159.371094 -103.054688 C -159.277344 -103.992188 -159.140625 -104.917969 -158.957031 -105.839844 C -158.773438 -106.761719 -158.542969 -107.671875 -158.269531 -108.570312 C -157.996094 -109.46875 -157.675781 -110.351562 -157.316406 -111.21875 C -156.953125 -112.085938 -156.550781 -112.933594 -156.105469 -113.761719 C -155.660156 -114.589844 -155.175781 -115.394531 -154.652344 -116.175781 C -154.128906 -116.953125 -153.566406 -117.707031 -152.96875 -118.429688 C -152.371094 -119.15625 -151.738281 -119.847656 -151.070312 -120.511719 C -150.402344 -121.171875 -149.707031 -121.800781 -148.976562 -122.390625 C -148.25 -122.984375 -147.492188 -123.542969 -146.707031 -124.058594 C -145.925781 -124.578125 -145.117188 -125.054688 -144.285156 -125.496094 C -143.457031 -125.933594 -142.605469 -126.332031 -141.734375 -126.683594 C -140.863281 -127.039062 -139.980469 -127.351562 -139.078125 -127.617188 C -138.175781 -127.886719 -137.265625 -128.109375 -136.34375 -128.285156 C -135.417969 -128.460938 -134.492188 -128.59375 -133.554688 -128.679688 C -132.617188 -128.765625 -131.679688 -128.804688 -130.742188 -128.796875 Z M -130.742188 -128.796875 "/>
</g>
<g clip-path="url(#clip3)" clip-rule="nonzero">
<path style=" stroke:none;fill-rule:nonzero;fill:rgb(79.998779%,84.709167%,89.7995%);fill-opacity:1;" d="M 50.992188 59.589844 C 50.992188 60.460938 50.867188 61.3125 50.613281 62.148438 C 50.359375 62.980469 49.992188 63.757812 49.507812 64.484375 C 49.027344 65.207031 48.445312 65.847656 47.773438 66.398438 C 47.101562 66.949219 46.363281 67.394531 45.558594 67.726562 C 44.753906 68.058594 43.917969 68.269531 43.050781 68.355469 C 42.183594 68.441406 41.324219 68.398438 40.472656 68.226562 C 39.617188 68.058594 38.804688 67.769531 38.039062 67.355469 C 37.269531 66.945312 36.578125 66.433594 35.964844 65.816406 L 16.320312 46.28125 C 15.234375 45.191406 14.058594 44.21875 12.78125 43.363281 C 11.503906 42.507812 10.160156 41.785156 8.738281 41.195312 C 7.320312 40.605469 5.859375 40.160156 4.351562 39.859375 C 2.847656 39.558594 1.324219 39.410156 -0.210938 39.410156 L 33.707031 39.410156 C 34.269531 39.410156 34.832031 39.4375 35.390625 39.492188 C 35.953125 39.546875 36.507812 39.632812 37.058594 39.742188 C 37.609375 39.851562 38.15625 39.988281 38.695312 40.148438 C 39.234375 40.3125 39.761719 40.503906 40.28125 40.71875 C 40.800781 40.933594 41.308594 41.171875 41.804688 41.4375 C 42.300781 41.703125 42.78125 41.992188 43.25 42.304688 C 43.71875 42.617188 44.167969 42.953125 44.605469 43.308594 C 45.039062 43.667969 45.457031 44.042969 45.851562 44.441406 C 46.25 44.839844 46.628906 45.253906 46.984375 45.691406 C 47.34375 46.125 47.675781 46.574219 47.988281 47.042969 C 48.300781 47.511719 48.589844 47.992188 48.855469 48.488281 C 49.121094 48.984375 49.359375 49.492188 49.578125 50.011719 C 49.792969 50.53125 49.980469 51.0625 50.144531 51.601562 C 50.308594 52.136719 50.445312 52.683594 50.554688 53.234375 C 50.664062 53.785156 50.746094 54.34375 50.800781 54.902344 C 50.855469 55.460938 50.882812 56.023438 50.882812 56.585938 Z M 50.992188 59.589844 "/>
</g>
<g clip-path="url(#clip4)" clip-rule="nonzero">
<path style=" stroke:none;fill-rule:nonzero;fill:rgb(100%,100%,100%);fill-opacity:1;" d="M 109.617188 245.757812 C 117.964844 246.261719 125.808594 246.386719 133.652344 247.273438 C 143.644531 248.15625 150.980469 256.988281 149.96875 266.957031 C 149.085938 276.042969 141.621094 283.109375 132.511719 283.363281 C 128.59375 283.613281 124.671875 283.363281 120.75 283.363281 C 117.207031 283.363281 113.539062 283.363281 109.492188 283.363281 C 108.101562 295.222656 110.25 306.203125 111.640625 317.183594 C 113.285156 331.820312 115.691406 346.457031 117.839844 361.222656 C 117.964844 362.359375 118.09375 363.621094 118.09375 364.882812 C 118.597656 375.734375 112.402344 383.8125 102.789062 385.199219 C 92.921875 386.839844 83.6875 380.277344 82.042969 370.433594 C 79.640625 358.320312 77.996094 345.953125 76.476562 333.714844 C 74.707031 319.328125 73.566406 304.816406 72.175781 290.429688 C 72.050781 288.914062 71.671875 287.527344 71.164062 285.128906 C 66.609375 285.382812 62.054688 285.886719 57.628906 286.011719 C 53.707031 286.265625 49.785156 286.265625 45.867188 285.761719 C 38.277344 284.75 32.582031 278.316406 32.457031 270.742188 C 32.078125 262.917969 36.25 256.609375 44.222656 254.464844 C 50.925781 252.699219 57.882812 252.191406 64.714844 251.058594 C 66.484375 250.804688 68.253906 250.425781 70.910156 249.921875 C 71.164062 246.640625 71.542969 243.359375 71.671875 240.203125 C 72.554688 222.664062 72.429688 205.125 76.222656 187.835938 C 80.019531 170.546875 86.976562 155.277344 98.738281 141.902344 C 112.652344 126 130.617188 122.089844 150.601562 124.234375 C 153.636719 124.738281 156.546875 125.75 159.203125 127.136719 C 166.414062 130.796875 169.957031 138.117188 168.3125 145.183594 C 166.539062 152.878906 159.582031 158.179688 151.742188 158.054688 C 147.820312 158.054688 143.898438 157.800781 139.976562 157.800781 C 133.777344 157.675781 127.960938 160.957031 124.925781 166.507812 C 121.128906 172.691406 117.964844 179.128906 115.183594 185.941406 C 109.996094 199.824219 107.59375 228.847656 109.617188 245.757812 Z M 109.617188 245.757812 "/>
</g>
<g clip-path="url(#clip5)" clip-rule="nonzero">
<path style=" stroke:none;fill-rule:nonzero;fill:rgb(100%,100%,100%);fill-opacity:1;" d="M 186.894531 265.011719 C 186.449219 261.453125 186.003906 258.339844 185.785156 255.226562 C 183.003906 219.980469 188.003906 186.625 210.335938 157.714844 C 221.667969 143.148438 237 136.035156 254.996094 134.476562 C 267.882812 133.363281 279.214844 137.367188 289.101562 145.261719 C 297.878906 152.265625 305.324219 160.828125 310.988281 170.5 C 324.429688 193.960938 332.761719 218.980469 332.542969 246.332031 C 332.542969 248.222656 332.429688 250.113281 332.320312 251.890625 C 331.207031 264.121094 323.765625 272.238281 311.878906 275.460938 C 290.214844 281.132812 267.996094 283.800781 245.886719 286.582031 C 239.554688 287.359375 233.445312 288.582031 226.890625 289.695312 C 231.222656 307.59375 239 322.714844 252.441406 334.390625 C 257.328125 338.617188 262.550781 342.175781 269.105469 343.285156 C 276.550781 344.621094 283.105469 343.730469 288.992188 338.171875 C 296.324219 331.277344 305.433594 331.277344 311.878906 337.503906 C 318.320312 343.730469 318.433594 352.960938 312.101562 360.519531 C 303.988281 370.304688 293.101562 374.75 280.769531 375.976562 C 260.550781 377.863281 243.777344 370.527344 229.109375 357.074219 C 214.78125 343.84375 204.113281 327.050781 198.335938 308.375 C 197.003906 304.257812 195.449219 299.921875 193.78125 294.699219 C 190.558594 295.03125 187.226562 295.363281 184.003906 295.808594 C 178.449219 296.585938 173.339844 296.03125 169.117188 291.917969 C 161.898438 284.800781 164.230469 273.015625 173.785156 268.789062 C 177.5625 267.121094 181.894531 266.457031 186.894531 265.011719 Z M 219 258.894531 C 246.21875 251.558594 273.773438 253.003906 300.324219 244.21875 C 299.769531 238.882812 299.433594 233.878906 298.546875 228.984375 C 294.769531 209.417969 287.992188 190.960938 274.4375 175.839844 C 263.550781 163.71875 248.886719 163.71875 237.664062 175.726562 C 236.222656 177.285156 234.886719 178.953125 233.777344 180.730469 C 217.667969 204.078125 216.113281 230.207031 219 258.894531 Z M 219 258.894531 "/>
</g>
</g>
</svg>
